<svg width="30" height="30" viewBox="0 0 30 30" fill="none" xmlns="http://www.w3.org/2000/svg">
<mask id="mask0" mask-type="alpha" maskUnits="userSpaceOnUse" x="1" y="0" width="29" height="30">
<path fill-rule="evenodd" clip-rule="evenodd" d="M1 0H29.5173V30H1V0Z" fill="white"/>
</mask>
<g mask="url(#mask0)">
<path fill-rule="evenodd" clip-rule="evenodd" d="M15.2452 10.8434C14.3329 10.8434 13.475 11.2004 12.8301 11.8484C12.1847 12.4967 11.8294 13.3586 11.8294 14.2751C11.8294 15.1917 12.1847 16.0535 12.8297 16.7015L15.2735 19.1567L17.6889 16.7303C19.021 15.392 19.021 13.2151 17.6889 11.8765L17.661 11.8484C17.0157 11.2004 16.1578 10.8434 15.2452 10.8434V10.8434ZM15.2665 4.33738C12.7251 4.33738 10.1841 5.30995 8.24936 7.25474C6.36069 9.15392 5.32851 11.6644 5.33175 14.3346C5.33571 17.004 6.37473 19.5113 8.25728 21.3942L10.7187 23.8554L12.2118 22.3548L9.72401 19.8533C8.2508 18.3729 7.43968 16.4039 7.43968 14.3096C7.43968 12.2153 8.2508 10.2467 9.72401 8.7659C11.1961 7.28514 13.1547 6.46966 15.2377 6.46966C17.3208 6.46966 19.2793 7.28514 20.7518 8.76626L20.7806 8.79486C23.8214 11.8516 23.8214 16.8252 20.7806 19.8823L18.3213 22.3548L19.81 23.8511L22.2837 21.3645C26.1529 17.4742 26.1529 11.145 22.2837 7.25474C20.349 5.30995 17.8079 4.33738 15.2665 4.33738V4.33738ZM19.815 30L15.2675 25.4316L10.7244 29.9957L5.20289 24.4792C2.49818 21.7766 1.0053 18.1776 0.999891 14.3448C0.994846 10.5116 2.47764 6.90829 5.17586 4.19803C10.7453 -1.39771 19.7901 -1.39735 25.3484 4.18717C30.907 9.77096 30.907 18.8571 25.3484 24.4412L19.815 30Z" fill="#114EF7"/>
</g>
</svg>
